<svg width="93" height="82" viewBox="0 0 93 82" fill="none" xmlns="http://www.w3.org/2000/svg">
<path d="M82.3071 33.6971V38.7956H77.2362V43.904H82.3071V49.0125H87.3813V43.904H92.4555V38.7956H87.3813V33.6971H82.3071ZM70.7972 33.6971H65.7198V38.7956H60.6456V43.904H65.7198V49.0125H70.794V43.904H75.8682V38.7956H70.794L70.7972 33.6971ZM58.781 50.9989C56.588 54.9229 53.168 58.0072 49.0534 59.7716C44.9388 61.536 40.3602 61.8816 36.0302 60.7547C31.7002 59.6278 27.8617 57.0915 25.112 53.5406C22.3622 49.9896 20.8555 45.6232 20.8262 41.1208C20.797 36.6184 22.2469 32.2325 24.9503 28.6457C27.6537 25.0588 31.459 22.4723 35.7739 21.2884C40.0889 20.1046 44.6716 20.3899 48.8088 22.1C52.946 23.8101 56.4056 26.849 58.6494 30.7439L76.3746 20.4807C71.8843 12.6606 64.9545 6.55222 56.6618 3.10439C48.369 -0.343449 39.1773 -0.937765 30.5146 1.41375C21.8518 3.76527 14.2028 8.931 8.75578 16.1085C3.30872 23.2861 0.368472 32.0737 0.391739 41.1063C0.415005 50.139 3.40048 58.9111 8.88445 66.0601C14.3684 73.2091 22.0439 78.3348 30.7186 80.6411C39.3934 82.9473 48.5818 82.305 56.8568 78.8139C65.1317 75.3228 72.0299 69.1784 76.4798 61.335L58.781 50.9989Z" fill="white"/>
</svg>
