<svg width="75" height="75" viewBox="0 0 75 75" fill="none" xmlns="http://www.w3.org/2000/svg">
<path d="M32.5563 4.76926L31.5848 4.53213V4.53213L32.5563 4.76926ZM42.4546 4.81434L43.4261 4.57721V4.57721L42.4546 4.81434ZM43.1128 7.51059L42.1413 7.74772V7.74772L43.1128 7.51059ZM46.7863 11.3587L46.4515 12.301V12.301L46.7863 11.3587ZM49.4164 12.4493L49.8466 11.5465L49.4164 12.4493ZM54.7347 12.3268L55.254 13.1814L54.7347 12.3268ZM57.1485 10.8602L56.6292 10.0056L57.1485 10.8602ZM63.2079 11.5891L63.915 10.882L63.915 10.8819L63.2079 11.5891ZM63.3783 11.7595L62.6712 12.4666L62.6712 12.4666L63.3783 11.7595ZM64.1158 17.8913L64.9704 18.4106L64.9704 18.4106L64.1158 17.8913ZM62.6732 20.2656L61.8186 19.7463L61.8186 19.7463L62.6732 20.2656ZM62.5507 25.5838L61.648 26.014L62.5507 25.5838ZM63.6411 28.2137L64.5834 27.8789L63.6411 28.2137ZM67.4893 31.8872L67.7264 30.9157H67.7264L67.4893 31.8872ZM70.2308 32.5564L69.9936 33.5279H69.9936L70.2308 32.5564ZM70.1857 42.4548L70.4228 43.4262L70.1857 42.4548ZM67.4893 43.1129L67.2521 42.1415L67.4893 43.1129ZM63.6411 46.7864L62.6988 46.4517L62.6988 46.4517L63.6411 46.7864ZM62.5507 49.4164L63.4534 49.8466L62.5507 49.4164ZM62.6731 54.7347L63.5278 54.2154H63.5278L62.6731 54.7347ZM64.1397 57.1484L63.2851 57.6676H63.2851L64.1397 57.1484ZM63.4109 63.2077L64.118 63.9148L63.4109 63.2077ZM57.1086 64.1157L57.6279 63.2611L57.1086 64.1157ZM54.7347 62.6733L54.2154 63.5279L54.7347 62.6733ZM49.4164 62.5509L48.9862 61.6481L48.9862 61.6481L49.4164 62.5509ZM46.7861 63.6415L47.1209 64.5838L46.7861 63.6415ZM43.1126 67.4896L42.1411 67.2525L43.1126 67.4896ZM42.4435 70.2307L43.415 70.4678V70.4678L42.4435 70.2307ZM32.5452 70.1856L33.5166 69.9484L32.5452 70.1856ZM31.8871 67.4897L32.8586 67.2526L31.8871 67.4897ZM28.2136 63.6415L28.5483 62.6992H28.5483L28.2136 63.6415ZM25.5832 62.5509L26.0134 61.6482H26.0134L25.5832 62.5509ZM20.2648 62.6734L19.7456 61.8187V61.8187L20.2648 62.6734ZM17.8513 64.1398L18.3706 64.9944L18.3706 64.9944L17.8513 64.1398ZM11.7919 63.411L12.4991 62.7039H12.4991L11.7919 63.411ZM10.884 57.1087L10.0294 56.5895L10.884 57.1087ZM12.3264 54.7348L13.181 55.2541L12.3264 54.7348ZM12.4488 49.4165L13.3516 48.9863L12.4488 49.4165ZM11.3583 46.7863L12.3006 46.4516L11.3583 46.7863ZM7.51013 43.1128L7.273 44.0843H7.273L7.51013 43.1128ZM4.76926 42.4438L4.53213 43.4152H4.53213L4.76926 42.4438ZM4.81434 32.5454L5.05147 33.5169H5.05148L4.81434 32.5454ZM7.51012 31.8874L7.27299 30.9159H7.27299L7.51012 31.8874ZM11.3583 28.2138L12.3006 28.5486H12.3006L11.3583 28.2138ZM12.4489 25.5834L11.5462 25.1532V25.1532L12.4489 25.5834ZM12.3265 20.265L11.4719 20.7843L12.3265 20.265ZM10.8601 17.8515L10.0055 18.3708L10.8601 17.8515ZM11.5889 11.7922L12.296 12.4993L11.5889 11.7922ZM17.8912 10.8842L17.3719 11.7388L17.8912 10.8842ZM20.2652 12.3266L20.7844 11.472L20.2652 12.3266ZM25.5834 12.4491L26.0136 13.3518L25.5834 12.4491ZM28.2136 11.3586L28.5483 12.3009L28.2136 11.3586ZM31.8872 7.51042L32.8586 7.74755V7.74755L31.8872 7.51042ZM28.8582 53.5783L28.1388 52.8837L27.2223 53.833L28.384 54.4587L28.8582 53.5783ZM34.7493 47.4769L35.0145 46.5127L34.4422 46.3552L34.0299 46.7823L34.7493 47.4769ZM46.6706 32.7049L47.5564 32.2408L46.9252 31.0361L45.9635 31.9978L46.6706 32.7049ZM39.2285 40.147L38.9635 41.1113L39.5243 41.2654L39.9356 40.8541L39.2285 40.147ZM35.7747 39.1979L34.8105 39.4629L34.9612 40.0114L35.5098 40.1622L35.7747 39.1979ZM34.8256 35.7442L34.1185 35.037L33.7072 35.4483L33.8614 36.0091L34.8256 35.7442ZM42.2591 28.3107L42.9662 29.0178L43.9319 28.0521L42.7197 27.4231L42.2591 28.3107ZM27.9717 41.5393L28.6911 42.2339L29.1508 41.7578L28.8922 41.1485L27.9717 41.5393ZM22.2252 47.491L21.3888 48.0392L22.0751 49.0862L22.9446 48.1856L22.2252 47.491ZM37.3562 0C34.6178 0 32.2342 1.87181 31.5848 4.53213L33.5277 5.00639C33.9585 3.24167 35.5397 2 37.3562 2V0ZM37.5972 0H37.3562V2H37.5972V0ZM43.4261 4.57721C42.7703 1.89043 40.3629 0 37.5972 0V2C39.441 2 41.0459 3.26029 41.4832 5.05147L43.4261 4.57721ZM44.0842 7.27346L43.4261 4.57721L41.4832 5.05147L42.1413 7.74772L44.0842 7.27346ZM47.121 10.4164C45.6036 9.87735 44.4371 8.7192 44.0842 7.27346L42.1413 7.74772C42.6819 9.9623 44.4185 11.5788 46.4515 12.301L47.121 10.4164ZM49.8466 11.5465C48.9621 11.125 48.0526 10.7474 47.121 10.4164L46.4515 12.301C47.3178 12.6088 48.1635 12.96 48.9862 13.352L49.8466 11.5465ZM54.2154 11.4722C52.9435 12.245 51.2999 12.2391 49.8466 11.5465L48.9862 13.352C50.9344 14.2804 53.3057 14.3652 55.254 13.1814L54.2154 11.4722ZM56.6292 10.0056L54.2154 11.4722L55.254 13.1814L57.6677 11.7148L56.6292 10.0056ZM63.915 10.8819C61.9786 8.94559 58.9695 8.58365 56.6292 10.0056L57.6677 11.7148C59.2202 10.7716 61.2163 11.0117 62.5008 12.2962L63.915 10.8819ZM64.0854 11.0524L63.915 10.882L62.5007 12.2962L62.6712 12.4666L64.0854 11.0524ZM64.9704 18.4106C66.4065 16.047 66.041 13.008 64.0854 11.0524L62.6712 12.4666C63.9749 13.7703 64.2186 15.7963 63.2612 17.372L64.9704 18.4106ZM63.5278 20.7849L64.9704 18.4106L63.2612 17.372L61.8186 19.7463L63.5278 20.7849ZM63.4535 25.1537C62.7609 23.7004 62.755 22.0568 63.5278 20.7849L61.8186 19.7463C60.6349 21.6946 60.7196 24.0658 61.648 26.014L63.4535 25.1537ZM64.5834 27.8789C64.2525 26.9474 63.8749 26.038 63.4535 25.1537L61.648 26.014C62.04 26.8366 62.3911 27.6822 62.6988 28.5484L64.5834 27.8789ZM67.7264 30.9157C66.2806 30.5628 65.1225 29.3964 64.5834 27.8789L62.6988 28.5484C63.421 30.5814 65.0375 32.3181 67.2521 32.8587L67.7264 30.9157ZM70.4679 31.5849L67.7264 30.9157L67.2521 32.8587L69.9936 33.5279L70.4679 31.5849ZM75 37.3564C75 34.6179 73.1282 32.2343 70.4679 31.5849L69.9936 33.5279C71.7584 33.9586 73 35.5398 73 37.3564H75ZM75 37.5974V37.3564H73V37.5974H75ZM70.4228 43.4262C73.1096 42.7704 75 40.363 75 37.5974H73C73 39.4411 71.7398 41.0461 69.9486 41.4833L70.4228 43.4262ZM67.7264 44.0844L70.4228 43.4262L69.9486 41.4833L67.2521 42.1415L67.7264 44.0844ZM64.5834 47.1212C65.1225 45.6038 66.2806 44.4373 67.7264 44.0844L67.2521 42.1415C65.0375 42.682 63.4211 44.4187 62.6988 46.4517L64.5834 47.1212ZM63.4534 49.8466C63.8749 48.9622 64.2525 48.0528 64.5834 47.1212L62.6988 46.4517C62.3911 47.3179 62.0399 48.1636 61.6479 48.9862L63.4534 49.8466ZM63.5278 54.2154C62.7549 52.9435 62.7609 51.2999 63.4534 49.8466L61.6479 48.9862C60.7196 50.9344 60.6348 53.3057 61.8185 55.2539L63.5278 54.2154ZM64.9943 56.6291L63.5278 54.2154L61.8185 55.2539L63.2851 57.6676L64.9943 56.6291ZM64.118 63.9148C66.0543 61.9785 66.4163 58.9694 64.9943 56.6291L63.2851 57.6676C64.2283 59.2201 63.9882 61.2161 62.7038 62.5006L64.118 63.9148ZM63.9476 64.0853L64.118 63.9148L62.7038 62.5006L62.5333 62.671L63.9476 64.0853ZM56.5894 64.9703C58.9529 66.4064 61.9919 66.0409 63.9476 64.0853L62.5333 62.671C61.2296 63.9748 59.2036 64.2185 57.6279 63.2611L56.5894 64.9703ZM54.2154 63.5279L56.5894 64.9703L57.6279 63.2611L55.254 61.8187L54.2154 63.5279ZM49.8465 63.4536C51.2999 62.761 52.9435 62.7551 54.2154 63.5279L55.254 61.8187C53.3057 60.6349 50.9344 60.7197 48.9862 61.6481L49.8465 63.4536ZM47.1209 64.5838C48.0525 64.2528 48.962 63.8751 49.8465 63.4536L48.9862 61.6481C48.1635 62.0402 47.3177 62.3914 46.4514 62.6992L47.1209 64.5838ZM44.0841 67.7267C44.437 66.281 45.6035 65.1228 47.1209 64.5838L46.4514 62.6992C44.4184 63.4214 42.6817 65.0379 42.1411 67.2525L44.0841 67.7267ZM43.415 70.4678L44.0841 67.7267L42.1411 67.2525L41.4721 69.9935L43.415 70.4678ZM37.6436 74.9999C40.382 74.9999 42.7656 73.1281 43.415 70.4678L41.4721 69.9935C41.0413 71.7582 39.4601 72.9999 37.6436 72.9999V74.9999ZM37.4026 74.9999H37.6436V72.9999H37.4026V74.9999ZM31.5737 70.4227C32.2295 73.1095 34.6369 74.9999 37.4026 74.9999V72.9999C35.5588 72.9999 33.9539 71.7396 33.5166 69.9484L31.5737 70.4227ZM30.9156 67.7268L31.5737 70.4227L33.5166 69.9484L32.8586 67.2526L30.9156 67.7268ZM27.8788 64.5838C29.3963 65.1229 30.5627 66.2811 30.9156 67.7268L32.8586 67.2526C32.318 65.038 30.5813 63.4215 28.5483 62.6992L27.8788 64.5838ZM25.153 63.4536C26.0375 63.8752 26.9471 64.2529 27.8788 64.5838L28.5483 62.6992C27.6819 62.3915 26.8361 62.0402 26.0134 61.6482L25.153 63.4536ZM20.7841 63.528C22.056 62.7551 23.6997 62.7611 25.153 63.4536L26.0134 61.6482C24.0652 60.7198 21.6938 60.635 19.7456 61.8187L20.7841 63.528ZM18.3706 64.9944L20.7841 63.528L19.7456 61.8187L17.332 63.2852L18.3706 64.9944ZM11.0848 64.1181C13.0212 66.0544 16.0303 66.4164 18.3706 64.9944L17.3321 63.2852C15.7796 64.2284 13.7835 63.9884 12.4991 62.7039L11.0848 64.1181ZM10.9144 63.9477L11.0848 64.1181L12.4991 62.7039L12.3286 62.5335L10.9144 63.9477ZM10.0294 56.5895C8.59327 58.953 8.95881 61.9921 10.9144 63.9477L12.3286 62.5335C11.0249 61.2297 10.7812 59.2037 11.7386 57.628L10.0294 56.5895ZM11.4718 54.2155L10.0294 56.5895L11.7386 57.628L13.181 55.2541L11.4718 54.2155ZM11.5461 49.8467C12.2386 51.3 12.2446 52.9436 11.4718 54.2155L13.181 55.2541C14.3647 53.3058 14.28 50.9345 13.3516 48.9863L11.5461 49.8467ZM10.416 47.1211C10.7469 48.0527 11.1246 48.9622 11.5461 49.8467L13.3516 48.9863C12.9595 48.1637 12.6083 47.3179 12.3006 46.4516L10.416 47.1211ZM7.273 44.0843C8.71876 44.4372 9.87691 45.6037 10.416 47.1211L12.3006 46.4516C11.5784 44.4186 9.96187 42.6819 7.74726 42.1413L7.273 44.0843ZM4.53213 43.4152L7.273 44.0843L7.74727 42.1413L5.00639 41.4723L4.53213 43.4152ZM0 37.6438C0 40.3822 1.87181 42.7659 4.53213 43.4152L5.00639 41.4723C3.24167 41.0415 2 39.4603 2 37.6438H0ZM0 37.4028V37.6438H2V37.4028H0ZM4.57721 31.5739C1.89043 32.2297 0 34.6371 0 37.4028H2C2 35.559 3.26029 33.9541 5.05147 33.5169L4.57721 31.5739ZM7.27299 30.9159L4.57721 31.5739L5.05148 33.5169L7.74725 32.8589L7.27299 30.9159ZM10.416 27.8791C9.8769 29.3965 8.71875 30.563 7.27299 30.9159L7.74725 32.8589C9.96186 32.3183 11.5784 30.5816 12.3006 28.5486L10.416 27.8791ZM11.5462 25.1532C11.1247 26.0378 10.747 26.9473 10.416 27.8791L12.3006 28.5486C12.6084 27.6822 12.9596 26.8363 13.3517 26.0136L11.5462 25.1532ZM11.4719 20.7843C12.2447 22.0562 12.2388 23.6999 11.5462 25.1532L13.3517 26.0136C14.2801 24.0654 14.3649 21.694 13.1811 19.7458L11.4719 20.7843ZM10.0055 18.3708L11.4719 20.7843L13.1811 19.7458L11.7147 17.3323L10.0055 18.3708ZM10.8818 11.0851C8.94547 13.0214 8.58353 16.0305 10.0055 18.3708L11.7147 17.3323C10.7715 15.7798 11.0116 13.7838 12.296 12.4993L10.8818 11.0851ZM11.0522 10.9147L10.8818 11.0851L12.296 12.4993L12.4665 12.3289L11.0522 10.9147ZM18.4104 10.0296C16.0469 8.5935 13.0079 8.95904 11.0522 10.9147L12.4665 12.3289C13.7702 11.0251 15.7962 10.7814 17.3719 11.7388L18.4104 10.0296ZM20.7844 11.472L18.4104 10.0296L17.3719 11.7388L19.7459 13.1813L20.7844 11.472ZM25.1532 11.5464C23.7 12.2389 22.0563 12.2448 20.7844 11.472L19.7459 13.1813C21.6941 14.365 24.0654 14.2802 26.0136 13.3518L25.1532 11.5464ZM27.8788 10.4163C26.9472 10.7472 26.0377 11.1249 25.1532 11.5464L26.0136 13.3518C26.8363 12.9598 27.682 12.6086 28.5483 12.3009L27.8788 10.4163ZM30.9157 7.27329C30.5628 8.71906 29.3963 9.87722 27.8788 10.4163L28.5483 12.3009C30.5814 11.5787 32.3181 9.96217 32.8586 7.74755L30.9157 7.27329ZM31.5848 4.53213L30.9157 7.27329L32.8586 7.74755L33.5277 5.00639L31.5848 4.53213ZM37.5 56.75C48.1315 56.75 56.75 48.1315 56.75 37.5H54.75C54.75 47.0269 47.0269 54.75 37.5 54.75V56.75ZM28.384 54.4587C31.0985 55.9208 34.2039 56.75 37.5 56.75V54.75C34.543 54.75 31.7626 54.0068 29.3324 52.6979L28.384 54.4587ZM34.0299 46.7823L28.1388 52.8837L29.5776 54.2729L35.4687 48.1715L34.0299 46.7823ZM37.5001 46.8465C36.638 46.8465 35.8048 46.7301 35.0145 46.5127L34.484 48.441C35.4455 48.7056 36.4571 48.8465 37.5001 48.8465V46.8465ZM46.8465 37.5001C46.8465 42.662 42.662 46.8465 37.5001 46.8465V48.8465C43.7665 48.8465 48.8465 43.7665 48.8465 37.5001H46.8465ZM45.7849 33.169C46.4627 34.4627 46.8465 35.9351 46.8465 37.5001H48.8465C48.8465 35.6041 48.3807 33.814 47.5564 32.2408L45.7849 33.169ZM45.9635 31.9978L38.5214 39.4399L39.9356 40.8541L47.3777 33.412L45.9635 31.9978ZM39.4935 39.1828L36.0397 38.2336L35.5098 40.1622L38.9635 41.1113L39.4935 39.1828ZM36.739 38.9329L35.7899 35.4792L33.8614 36.0091L34.8105 39.4629L36.739 38.9329ZM35.5327 36.4513L42.9662 29.0178L41.552 27.6036L34.1185 35.037L35.5327 36.4513ZM37.5001 28.1536C39.052 28.1536 40.5128 28.531 41.7985 29.1983L42.7197 27.4231C41.1561 26.6116 39.3801 26.1536 37.5001 26.1536V28.1536ZM28.1536 37.5001C28.1536 32.3382 32.3382 28.1536 37.5001 28.1536V26.1536C31.2336 26.1536 26.1536 31.2336 26.1536 37.5001H28.1536ZM28.8922 41.1485C28.417 40.0289 28.1536 38.7965 28.1536 37.5001H26.1536C26.1536 39.0699 26.473 40.5676 27.0512 41.93L28.8922 41.1485ZM22.9446 48.1856L28.6911 42.2339L27.2523 40.8447L21.5058 46.7964L22.9446 48.1856ZM18.25 37.5C18.25 41.3888 19.4041 45.011 21.3888 48.0392L23.0616 46.9428C21.2839 44.2305 20.25 40.9875 20.25 37.5H18.25ZM37.5 18.25C26.8685 18.25 18.25 26.8685 18.25 37.5H20.25C20.25 27.9731 27.9731 20.25 37.5 20.25V18.25ZM56.75 37.5C56.75 26.8685 48.1315 18.25 37.5 18.25V20.25C47.0269 20.25 54.75 27.9731 54.75 37.5H56.75Z" fill="white"/>
</svg>
