<svg width="76" height="102" viewBox="0 0 76 102" fill="none" xmlns="http://www.w3.org/2000/svg">
<path d="M5.40262 0.00564387C4.23906 0.0596121 3.03553 0.508818 2.43691 1.93659C1.51286 5.06307 1.03115 8.30646 1.00615 11.5699L6.11643 14.0747C6.02244 10.9973 6.14157 7.91697 6.47294 4.85643C6.23425 7.88322 6.23084 10.9243 6.46276 13.9517C9.1115 11.6694 11.6393 9.24698 14.0357 6.69453C13.532 5.33657 12.7689 4.09256 11.7899 3.03372C10.811 1.97488 9.6355 1.122 8.33073 0.523897C8.33073 0.523897 6.89998 -0.0634037 5.40262 0.00564387ZM6.46276 13.9509C6.54346 15.4033 6.66805 17.0294 6.82319 18.8294C6.82632 18.9215 6.83651 19.0183 6.85453 19.1096C7.00184 20.6834 7.19145 22.3763 7.43514 24.2223C7.64121 25.8167 7.87314 27.489 8.15208 29.3032C8.38244 30.8683 8.66922 32.5096 8.96226 34.2509L8.93563 34.2739C8.98812 34.3191 8.99517 34.3556 8.99204 34.3802C9.03357 34.6143 9.07588 34.8199 9.11427 35.0564C9.24747 35.7445 9.36657 36.4421 9.50604 37.1437C9.64943 37.9088 9.80693 38.6882 9.95737 39.4889C10.031 39.8929 10.1086 40.2961 10.1916 40.708C10.4408 41.9413 10.7096 43.2064 10.9854 44.5056C11.3427 46.108 11.6992 47.7516 12.098 49.4628C12.4584 51.0818 12.8776 52.7691 13.3015 54.4834C13.7137 56.1199 14.1297 57.7961 14.5881 59.5318C14.9909 61.0659 15.421 62.6429 15.8575 64.2477C15.8575 64.3223 15.91 64.4064 15.9248 64.485C16.3781 66.1227 16.8386 67.7585 17.3062 69.3921C17.3104 69.4291 17.321 69.4651 17.3376 69.4985L19.4085 67.5675C19.3568 67.5675 19.3184 67.6135 19.2479 67.6421C19.5129 67.3179 19.7677 66.9852 20.0118 66.6445C20.0755 66.8009 20.1374 66.9581 20.1975 67.1159C19.9411 67.2833 19.6778 67.4398 19.4085 67.585L17.3376 69.5159C17.4151 69.7564 17.477 69.9969 17.5687 70.2492C17.8767 71.358 18.2253 72.5104 18.5795 73.6667C18.1478 73.4951 17.7281 73.2938 17.3235 73.0643C17.0617 72.1514 16.8018 71.2379 16.5438 70.3238C16.4569 69.9977 16.366 69.6929 16.2774 69.3635L16.2602 69.3548C15.8985 68.0631 15.5417 66.77 15.1899 65.4754C15.0888 65.0961 14.9979 64.7262 14.8921 64.3469C14.4588 62.7072 14.024 61.0413 13.5844 59.362C13.1688 57.7371 12.7655 56.109 12.3746 54.4778C11.9758 52.8294 11.5942 51.1707 11.2126 49.5159C10.8349 47.8588 10.4604 46.127 10.1109 44.4366C9.75756 42.7461 9.42926 41.0588 9.10017 39.3794C8.98264 38.7699 8.87529 38.1786 8.76795 37.5651C8.57911 36.531 8.40752 35.4858 8.2226 34.4366C8.2197 34.3784 8.2078 34.3211 8.18734 34.2667L1.39793 30.7572C1.41595 30.8659 1.423 30.9755 1.42613 31.0882C1.56247 32.6437 1.69175 34.2255 1.87745 35.8064C2.05924 37.3826 2.25434 39.0334 2.49254 40.6707C2.69234 42.0493 2.9086 43.4151 3.13269 44.7961C3.17736 45.0691 3.23455 45.358 3.28 45.627C3.87767 48.938 4.6413 52.2161 5.56795 55.4485C5.861 56.4469 6.15169 57.4143 6.44865 58.3294C6.70722 59.0969 6.98695 59.8699 7.25649 60.6318C7.8992 62.4015 8.61574 64.1427 9.40418 65.8508L9.42377 65.8612C9.44414 65.9302 9.46687 65.9953 9.49899 66.0619C10.4288 68.0938 11.4827 70.0651 12.6543 71.9643C12.6919 72.0199 12.7311 72.1016 12.7726 72.1588C11.0712 71.6875 9.29662 71.5493 7.54405 71.7516C10.7288 72.6474 13.6312 74.3609 15.9703 76.7262C14.8342 77.7337 13.4626 78.43 11.986 78.7492C13.4528 78.9939 14.9569 78.8585 16.3581 78.3556C15.012 79.8249 14.0921 81.6418 13.6996 83.6064C14.6656 81.672 16.1654 80.0635 18.0169 78.9762C18.3405 80.0635 18.6915 81.1905 19.0355 82.3064C15.993 88.3127 12.8964 94.7746 9.74032 101.587C10.1238 101.535 10.4884 101.387 10.8012 101.156C11.1139 100.926 11.3649 100.62 11.5315 100.266C12.0831 99.0754 15.0159 92.7389 19.5103 83.8508C21.2381 89.3715 23.1859 95.2 25.3023 101.254C25.5116 100.979 25.6505 100.656 25.7065 100.314C25.7626 99.9711 25.7341 99.6199 25.6236 99.2913C25.2122 98.1445 22.9728 91.7262 20.1552 82.585C20.8222 81.2742 21.494 79.966 22.1705 78.6604C22.7041 78.7965 23.2197 78.9969 23.7062 79.2572C24.7176 80.2435 25.4479 81.4876 25.8202 82.8588C25.9761 81.1839 25.4776 79.514 24.4318 78.2072C30.0106 79.2984 35.0786 78.5723 38.1712 74.781C38.4493 74.4282 38.713 74.0642 38.9618 73.6897C38.2359 74.3673 37.342 74.8325 36.3755 75.0359C35.409 75.2393 34.4062 75.1731 33.4739 74.8445C36.8016 74.126 39.7968 72.3019 41.984 69.6619C42.5253 69.0071 43.0411 68.3309 43.5299 67.635C41.8645 69.0213 39.8703 69.9429 37.745 70.3083C35.6197 70.6737 33.437 70.4704 31.4132 69.7183L31.3748 69.7159C31.3278 69.6977 31.28 69.6865 31.2181 69.6612C35.9412 69.399 40.4625 67.6349 44.1387 64.6199C45.9627 63.1128 47.6072 61.3956 49.039 59.5032C50.2843 57.8631 51.4278 56.1463 52.4631 54.3628C53.5069 52.5755 54.4803 50.7471 55.381 48.8818C54.3848 49.218 53.3481 49.4156 52.2993 49.4691L51.6944 49.5008H51.0786C54.5368 48.6368 57.526 46.4408 59.4108 43.3794C58.0075 44.0662 56.4925 44.4887 54.9399 44.6262C54.6985 44.6516 54.44 44.6516 54.1814 44.6548H53.9855C55.1629 44.3674 56.2993 43.9292 57.3673 43.3509C57.5783 43.2419 57.7826 43.1202 57.98 42.9858C58.2872 42.7913 58.5747 42.5755 58.8615 42.3556C59.0464 42.2032 59.2212 42.0651 59.4037 41.9128C59.8259 41.5414 60.2165 41.1347 60.5712 40.6969C60.6942 40.5556 60.8102 40.431 60.9081 40.2826C61.0578 40.0667 61.2043 39.8675 61.3344 39.6628C61.8912 38.8574 62.4163 38.03 62.9085 37.1826C63.1177 36.8215 63.3066 36.4778 63.4719 36.1588C63.5307 36.0278 63.6051 35.9175 63.6678 35.7969C63.8394 35.4318 64.0031 35.1207 64.1222 34.8366C64.2656 34.5112 64.3949 34.1755 64.503 33.831C64.3626 33.9194 64.2125 33.9908 64.0556 34.0437C62.5978 34.5621 61.0702 34.8512 59.526 34.9009C59.5171 34.895 59.5068 34.892 59.4962 34.892C59.4856 34.892 59.4753 34.895 59.4664 34.9009C59.3604 34.8977 59.2543 34.8977 59.1483 34.9009C61.4392 34.3521 63.5234 33.1408 65.1471 31.4144C65.5603 30.9677 65.9637 30.5117 66.3569 30.0469C67.6334 28.5581 68.8371 27.0067 69.9636 25.3985C70.997 23.9379 71.9533 22.4228 72.8282 20.8596C73.2896 20.0463 73.7089 19.2092 74.0842 18.3517C74.3443 17.7256 74.5834 17.0909 74.8012 16.4485C70.8842 16.5517 66.9649 16.4525 63.059 16.1548C61.8549 17.5399 60.6768 18.9478 59.5252 20.3779C59.4517 20.4548 59.386 20.5391 59.3293 20.6294C58.1215 22.1361 56.9405 23.6647 55.7869 25.2144C54.7134 26.6636 53.5655 28.2048 52.3691 29.8945C51.3301 31.335 50.2801 32.8834 49.1652 34.5096L49.0946 34.5072C49.1134 34.5747 49.0876 34.6104 49.0672 34.6278C48.9168 34.8437 48.7867 35.0501 48.6363 35.2659C48.203 35.9278 47.7509 36.5834 47.3144 37.2604C46.8266 38.0153 46.3335 38.7666 45.8351 39.5143C45.5836 39.9001 45.3281 40.2826 45.0688 40.6866C44.2993 41.881 43.526 43.1128 42.726 44.3818C41.7142 46.0001 40.717 47.6277 39.7344 49.2643C38.734 50.9277 37.7441 52.5976 36.7648 54.2739C35.8143 55.9215 34.8373 57.6072 33.8445 59.3548C32.9622 60.9127 32.0737 62.5294 31.1577 64.1842C31.1084 64.2548 31.0747 64.3508 31.0245 64.4246C30.1016 66.1127 29.1888 67.8064 28.286 69.5056C28.2619 69.5346 28.244 69.5684 28.2335 69.6048H28.2304C28.0941 69.881 27.953 70.1254 27.8245 70.3873C27.0919 71.7628 26.3689 73.1435 25.6557 74.5294C25.6557 74.5477 25.6314 74.5643 25.6275 74.5826C25.5193 74.7913 25.4112 74.9754 25.3235 75.181C24.8337 76.1207 24.4036 77 23.4367 78.8873C23.1381 78.5946 22.8077 78.3371 22.4518 78.1199C22.9313 77.1961 23.3959 76.2921 23.8998 75.3342C24.0956 74.9715 24.3056 74.5897 24.5015 74.1961L24.6661 73.881C25.4034 72.5024 26.1626 71.0858 26.9501 69.6365C27.135 69.3008 27.3066 68.9818 27.4884 68.6477V68.6302L26.7229 66.3151L26.7103 66.2334L27.4954 68.6056C28.2124 67.2802 28.9513 65.9627 29.6855 64.6127C29.8813 64.2556 30.1047 63.8866 30.3115 63.4937C31.2486 61.8207 32.2061 60.135 33.1761 58.412C34.115 56.7674 35.0709 55.1329 36.0439 53.5088C37.0265 51.8691 38.0106 50.2207 39.0002 48.577C40.0166 46.9021 41.052 45.239 42.1062 43.5882C43.1585 41.9334 44.2085 40.3255 45.2545 38.7064C45.6352 38.1223 46.0236 37.5435 46.4196 36.9699C47.0849 35.9789 47.7575 34.9929 48.4372 34.012C48.4662 33.958 48.5101 33.9024 48.5391 33.8453L48.5422 33.8556C49.6368 32.3572 50.708 30.8397 51.7783 29.3556C52.9185 27.8064 54.074 26.2687 55.2447 24.7429C56.4206 23.2185 57.6313 21.7218 58.8756 20.254C58.9454 20.1628 59.0221 20.0771 59.0887 20.0025C60.253 18.6262 61.4472 17.2761 62.6703 15.9533L60.5234 9.83738C60.2664 10.0826 59.9953 10.3231 59.7179 10.5818C58.6446 11.5911 57.5893 12.6198 56.5524 13.6675C55.2637 14.9702 53.9926 16.2907 52.7397 17.6286C51.5006 18.964 50.2798 20.3165 49.0774 21.6858C48.0122 22.9136 46.9596 24.1525 45.9197 25.4025L45.7967 25.5437L45.8092 25.581C45.7425 25.6744 45.6692 25.7627 45.5898 25.8453C44.478 27.2088 43.3489 28.5874 42.2425 30.0151C41.1122 31.4679 40.0057 32.9395 38.9234 34.4294C38.004 35.6995 37.0968 36.9786 36.2022 38.2667C36.0235 38.5223 35.8418 38.7977 35.6702 39.0532C34.5959 40.6834 33.5538 42.2802 32.6378 43.8151C31.6502 45.4512 30.7077 47.1148 29.8116 48.804C29.2798 49.8062 28.7618 50.8158 28.2578 51.8326C27.8629 52.658 27.4821 53.5056 27.1037 54.3342C26.2345 56.2764 25.4445 58.254 24.7358 60.262L25.0947 61.3445L25.0853 61.3635L24.7288 60.2866C24.6867 60.3672 24.6516 60.4514 24.6238 60.5381C24.1818 61.7917 23.7804 63.0596 23.4202 64.3397C22.8181 65.1338 22.1128 65.8418 21.3235 66.4445C21.146 66.1758 20.9605 65.9128 20.7671 65.6556C22.6945 62.9011 23.9065 59.6996 24.2915 56.3461C24.5125 54.2499 24.4901 52.1346 24.2249 50.0437C24.0078 48.2264 23.6759 46.4251 23.2314 44.6508C22.7916 42.8709 22.2843 41.1087 21.7105 39.3683C21.2878 40.2075 20.756 40.9856 20.1293 41.6818L19.772 42.0786C19.6529 42.2135 19.5197 42.331 19.3881 42.4723C21.0354 39.7528 21.5698 36.4896 20.8776 33.377C20.4153 34.6917 19.7207 35.9102 18.8279 36.9731C18.6915 37.1397 18.5301 37.3024 18.3695 37.4659C18.3272 37.4977 18.2958 37.5405 18.2402 37.5866C18.8062 36.6633 19.2528 35.6703 19.5691 34.6318C19.6321 34.4294 19.6837 34.2235 19.7235 34.0151C19.7971 33.6993 19.8457 33.3794 19.8911 33.062C19.9092 32.8485 19.9436 32.654 19.9617 32.4421C20.0041 31.9433 20.0041 31.4417 19.9617 30.9429C19.9617 30.777 19.9617 30.6286 19.9225 30.4723C19.881 30.239 19.8528 30.0223 19.8104 29.8096C19.6612 28.957 19.4827 28.1099 19.2753 27.2699C19.1933 26.9355 19.1024 26.6033 19.0026 26.2739C18.9611 26.1532 18.9399 26.0358 18.8976 25.9088C18.7856 25.5794 18.6955 25.2739 18.5967 25.0231C18.4855 24.724 18.3594 24.4308 18.2191 24.1445C18.1843 24.2878 18.1338 24.4268 18.0686 24.5588C17.4819 25.7658 16.7223 26.8784 15.8144 27.8604L15.7282 27.939C15.7126 27.9499 15.7014 27.9663 15.6968 27.985C15.5981 28.0849 15.5047 28.1901 15.4171 28.3001C15.4171 28.2818 15.4343 28.2667 15.4453 28.2509L15.4845 28.2151C16.5912 26.426 17.1597 24.3491 17.1205 22.2382C17.1205 21.7207 17.0829 21.1747 17.0406 20.6152C16.9385 18.8754 16.7494 17.1419 16.4741 15.4215C16.2338 13.8484 15.9103 12.2896 15.5049 10.7517C15.2938 9.94954 15.0441 9.15838 14.7566 8.38104C14.5342 7.82587 14.2951 7.27773 14.0396 6.73739C11.635 9.26931 9.10621 11.6771 6.46276 13.9517V13.9509ZM70.5442 2.95009C70.0968 2.96007 69.6554 3.05623 69.2435 3.23342C66.0528 5.01109 63.1263 7.23683 60.5508 9.84453L62.6977 15.9779C65.0348 13.4229 67.5494 11.0407 70.2221 8.84929C67.6478 11.0878 65.2526 13.5293 63.059 16.1509C66.9773 16.4458 70.9083 16.5332 74.8356 16.4128C75.4973 14.9118 75.8601 13.2934 75.9034 11.6501C75.9467 10.0069 75.6696 8.37119 75.0879 6.83659C75.0879 6.83659 73.4119 2.90961 70.5442 2.95009ZM1.00224 11.581C1.00224 11.8921 0.96776 12.2152 0.953656 12.5548C0.904293 13.7913 0.866683 15.0945 0.855713 16.4913C0.855713 18.0493 0.855712 19.6763 0.88392 21.3771C0.918396 22.9461 0.984997 24.5802 1.0657 26.2421C1.14954 27.6628 1.24043 29.0977 1.35561 30.5644V30.731L8.18342 34.231C7.95619 32.5977 7.70859 30.9723 7.46648 29.3596C7.23172 27.67 7.01728 25.9775 6.82319 24.2826C6.62455 22.5837 6.46831 20.88 6.35463 19.1731C6.35463 19.0699 6.33661 18.9683 6.35463 18.8794C6.22479 17.2796 6.14196 15.6763 6.10625 14.0715L1.00224 11.581ZM59.008 34.8985L59.0417 34.9009H59.0049L59.008 34.8985ZM25.9354 63.8889L26.5215 65.6635L26.516 65.6921L25.9307 63.9207L25.9354 63.8889ZM17.4833 73.6238C17.9287 74.12 18.422 74.5698 18.9556 74.9667C19.0434 75.2604 19.2142 75.804 19.3121 76.1223C18.957 76.1588 18.6035 76.2107 18.2528 76.2778C18.2065 76.1231 18.1634 75.9818 18.118 75.8254C18.013 75.4604 17.9174 75.0992 17.7999 74.735C17.767 74.6318 17.7434 74.5397 17.7121 74.4302L17.4833 73.6238ZM18.9799 77.4135C19.2365 77.4468 19.4921 77.4881 19.7462 77.5373C19.8528 77.8842 19.8778 77.9604 20.0173 78.4159C20.3494 78.4046 20.682 78.417 21.0124 78.4532C20.5713 79.3 20.127 80.1786 19.6835 81.0469C19.3286 79.8834 18.9626 78.6659 18.5952 77.4278C18.7233 77.4211 18.8516 77.4163 18.9799 77.4135Z" fill="white"/>
</svg>
