<svg width="90" height="90" viewBox="0 0 90 90" fill="none" xmlns="http://www.w3.org/2000/svg">
<path d="M75.9374 31.2188V25.3125C75.9374 21.5829 74.4559 18.006 71.8186 15.3688C69.1814 12.7316 65.6045 11.25 61.8749 11.25H28.1249C24.3953 11.25 20.8185 12.7316 18.1812 15.3688C15.544 18.006 14.0624 21.5829 14.0624 25.3125V31.2188C10.8835 31.8643 8.02548 33.5889 5.97263 36.1005C3.91977 38.6121 2.79834 41.7562 2.79834 45C2.79834 48.2438 3.91977 51.3879 5.97263 53.8995C8.02548 56.4111 10.8835 58.1357 14.0624 58.7812V70.3125C14.0624 71.8043 14.6551 73.2351 15.71 74.29C16.7649 75.3449 18.1956 75.9375 19.6874 75.9375H70.3124C71.8043 75.9375 73.235 75.3449 74.2899 74.29C75.3448 73.2351 75.9374 71.8043 75.9374 70.3125V58.7812C79.1164 58.1357 81.9744 56.4111 84.0272 53.8995C86.0801 51.3879 87.2015 48.2438 87.2015 45C87.2015 41.7562 86.0801 38.6121 84.0272 36.1005C81.9744 33.5889 79.1164 31.8643 75.9374 31.2188ZM28.1249 16.875H61.8749C64.1127 16.875 66.2588 17.7639 67.8411 19.3463C69.4235 20.9286 70.3124 23.0747 70.3124 25.3125V31.2188C67.1382 31.8714 64.2861 33.5985 62.2368 36.1089C60.1875 38.6192 59.0664 41.7594 59.0624 45H30.9374C30.9335 41.7594 29.8124 38.6192 27.7631 36.1089C25.7138 33.5985 22.8617 31.8714 19.6874 31.2188V25.3125C19.6874 23.0747 20.5764 20.9286 22.1587 19.3463C23.7411 17.7639 25.8872 16.875 28.1249 16.875ZM73.262 53.4375H73.1249C72.379 53.4375 71.6636 53.7338 71.1362 54.2613C70.6087 54.7887 70.3124 55.5041 70.3124 56.25V70.3125H19.6874V56.25C19.6874 55.5041 19.3911 54.7887 18.8637 54.2613C18.3362 53.7338 17.6209 53.4375 16.8749 53.4375H16.7378C15.0752 53.4105 13.4575 52.8928 12.0881 51.9494C10.7188 51.006 9.65868 49.679 9.04103 48.135C8.42339 46.5911 8.27574 44.8991 8.61662 43.2715C8.9575 41.6439 9.77172 40.1533 10.957 38.987C12.1423 37.8207 13.6458 37.0306 15.2786 36.716C16.9115 36.4014 18.6009 36.5763 20.1347 37.2187C21.6685 37.8612 22.9782 38.9425 23.8994 40.3269C24.8206 41.7114 25.3122 43.3371 25.3124 45V59.0625C25.3124 59.8084 25.6088 60.5238 26.1362 61.0512C26.6636 61.5787 27.379 61.875 28.1249 61.875C28.8709 61.875 29.5862 61.5787 30.1137 61.0512C30.6411 60.5238 30.9374 59.8084 30.9374 59.0625V50.625H59.0624V59.0625C59.0624 59.8084 59.3588 60.5238 59.8862 61.0512C60.4136 61.5787 61.129 61.875 61.8749 61.875C62.6209 61.875 63.3362 61.5787 63.8637 61.0512C64.3911 60.5238 64.6874 59.8084 64.6874 59.0625V45C64.6877 43.3371 65.1792 41.7114 66.1004 40.3269C67.0217 38.9425 68.3314 37.8612 69.8652 37.2187C71.399 36.5763 73.0884 36.4014 74.7212 36.716C76.3541 37.0306 77.8576 37.8207 79.0429 38.987C80.2282 40.1533 81.0424 41.6439 81.3833 43.2715C81.7241 44.8991 81.5765 46.5911 80.9588 48.135C80.3412 49.679 79.2811 51.006 77.9117 51.9494C76.5423 52.8928 74.9247 53.4105 73.262 53.4375Z" fill="white"/>
</svg>
