<svg width="86" height="117" viewBox="0 0 86 117" fill="none" xmlns="http://www.w3.org/2000/svg">
<path d="M27.4812 90.3454C9.74897 95.3637 38.2701 105.731 60.8494 95.9318C57.1508 94.4755 54.4982 92.7956 54.4982 92.7956C44.43 94.7235 39.7595 94.8752 30.6199 93.8176C23.0768 92.9425 27.4812 90.3454 27.4812 90.3454ZM58.1459 80.5559C44.8005 83.1567 37.0921 83.0734 27.3288 82.0533C19.7793 81.2625 24.7214 77.5563 24.7214 77.5563C5.19209 84.1226 35.5934 91.5733 62.8885 83.4862C59.9873 82.4511 58.1459 80.5559 58.1459 80.5559ZM68.604 23.8636C68.604 23.8636 29.1231 33.8488 47.9789 55.8593C53.5447 62.3498 46.519 68.1851 46.519 68.1851C46.519 68.1851 60.6452 60.7999 54.1591 51.5476C48.099 42.9233 43.4534 38.6387 68.604 23.8636ZM77.8416 99.8064C77.8416 99.8064 81.1021 102.53 74.2493 104.635C61.2199 108.633 20.0084 109.838 8.5617 104.795C4.45017 102.981 12.1641 100.466 14.5913 99.9356C17.122 99.3806 18.5671 99.4817 18.5671 99.4817C13.9917 96.2182 -11.0111 105.893 5.87026 108.668C51.9019 116.226 89.7798 105.264 77.8416 99.8064ZM62.0209 71.4177C64.2338 69.8885 67.2902 68.5604 67.2902 68.5604C67.2902 68.5604 58.5829 70.1374 49.9081 70.8758C39.2883 71.778 27.897 71.9559 22.1787 71.1809C8.64116 69.3475 29.6008 64.3039 29.6008 64.3039C29.6008 64.3039 21.459 63.7461 11.4509 68.6503C-0.386663 74.4482 40.7315 77.0912 62.0209 71.4177ZM67.2033 85.592C67.1035 85.8634 66.7709 86.1685 66.7709 86.1685C95.6653 78.4744 85.0418 59.047 71.2261 63.9642C70.0139 64.3985 69.3783 65.4083 69.3783 65.4083C69.3783 65.4083 70.1442 65.0957 71.8526 64.7344C78.8366 63.2604 88.8429 74.2048 67.2033 85.592ZM42.7854 64.0924C38.5223 54.3319 24.0664 45.7927 42.7919 30.8127C66.1408 12.1443 54.16 0 54.16 0C58.9922 19.2871 37.1124 25.1131 29.2146 37.1244C23.8363 45.3089 31.8542 54.1035 42.7854 64.0924ZM67.985 112.523C50.2573 115.904 28.3904 115.51 15.4247 113.341C15.4247 113.341 18.0801 115.569 31.7286 116.459C52.4951 117.804 84.3932 115.71 85.1472 105.756C85.1472 105.756 83.6966 109.53 67.985 112.523Z" fill="white"/>
</svg>
