<svg width="95" height="96" viewBox="0 0 95 96" fill="none" xmlns="http://www.w3.org/2000/svg">
<path d="M15.9158 0C11.7579 0 7.77024 1.67679 4.83013 4.6615C1.89002 7.6462 0.238281 11.6943 0.238281 15.9153V79.5767C0.238281 83.7977 1.89002 87.8459 4.83013 90.8306C7.77024 93.8153 11.7579 95.4921 15.9158 95.4921H78.626C82.784 95.4921 86.7716 93.8153 89.7117 90.8306C92.6518 87.8459 94.3036 83.7977 94.3036 79.5767V15.9153C94.3036 11.6943 92.6518 7.6462 89.7117 4.6615C86.7716 1.67679 82.784 0 78.626 0H15.9158ZM54.2422 69.2583C58.0048 72.3352 61.7605 73.8525 65.5091 73.8101C67.8085 73.8101 69.5714 73.3821 70.7977 72.5262C71.3687 72.15 71.8333 71.6292 72.1457 71.0153C72.4582 70.4013 72.6078 69.7153 72.5797 69.0248C72.5877 68.2717 72.4326 67.526 72.1256 66.8403C71.8186 66.1547 71.3671 65.5458 70.8029 65.0566C69.5766 63.9708 67.2563 62.8815 63.8421 61.7887C59.7415 60.5862 56.5799 59.03 54.3572 57.1202C52.1762 55.2103 51.0649 52.5454 51.0231 49.1254C51.0231 45.8963 52.4027 43.1925 55.162 41.0138C57.8446 38.8352 61.2762 37.7459 65.4569 37.7459C71.2819 37.7459 75.9556 39.1853 79.4778 42.0643L75.4539 48.4251C74.005 47.2815 72.3428 46.4477 70.5678 45.9741C68.9726 45.4316 67.306 45.1365 65.6241 45.0988C63.6383 45.0988 62.0479 45.4684 60.8529 46.2075C59.6684 46.9503 59.0761 47.9229 59.0761 49.1254C59.0761 50.4481 59.8025 51.5763 61.2553 52.51C62.7185 53.4084 65.2095 54.4004 68.7283 55.4862C72.9821 56.77 76.0096 58.4818 77.8108 60.6215C79.612 62.7613 80.5125 65.4846 80.5125 68.7914C80.5125 72.1761 79.2287 75.0939 76.6611 77.5449C74.1318 79.9569 70.4528 81.2213 65.6241 81.338C59.3008 81.338 54.0123 79.4123 49.7584 75.5607L54.2422 69.2583ZM25.3433 72.6429C26.5696 73.421 28.045 73.8101 29.7696 73.8101C31.5707 73.8101 33.0653 73.2849 34.2533 72.2344C35.4379 71.1451 36.0319 69.2583 36.0353 66.5739V38.4462H43.7957V68.0911C43.6808 72.6818 42.3778 75.9887 39.8868 78.0117C38.5238 79.1815 36.9391 80.0554 35.2306 80.5794C33.6462 81.0691 32.0006 81.3246 30.3444 81.338C27.4702 81.338 24.9217 80.8323 22.699 79.8208C20.323 78.735 18.3302 76.8092 16.7206 74.0435L22.1241 69.5501C23.117 70.9117 24.1901 71.9427 25.3433 72.6429Z" fill="white"/>
</svg>
