<svg width="95" height="94" viewBox="0 0 95 94" fill="none" xmlns="http://www.w3.org/2000/svg">
<g clip-path="url(#clip0_194_118)">
<path d="M86.2754 4.8785C84.9586 8.03713 83.272 11.0288 81.2509 13.7909C72.3984 4.94973 60.3955 -0.0174433 47.8798 -0.019043C21.9964 -0.019043 0.696533 21.2837 0.696533 47.1778C0.696428 53.572 1.99547 59.8997 4.51494 65.7773C7.03442 71.655 10.7219 76.9603 15.3538 81.3717L17.094 82.9139C25.5988 90.0795 36.3632 94.0126 47.4874 94.0191C72.0965 94.0191 92.7835 74.7491 94.5355 50.1894C95.8222 38.167 92.2933 22.961 86.2754 4.8785ZM22.0574 81.6405C21.6786 82.107 21.2004 82.4831 20.6577 82.7415C20.1149 82.9999 19.5214 83.1341 18.9202 83.1342C16.7023 83.1342 14.8879 81.3101 14.8879 79.0937C14.8879 76.8774 16.7141 75.0539 18.9202 75.0539C19.8388 75.0539 20.7464 75.3719 21.457 75.9601C23.1847 77.3554 23.4544 79.914 22.0574 81.6405ZM86.0799 67.5126C74.4371 83.0241 49.5708 77.7961 33.6267 78.5429C33.6267 78.5429 30.796 78.7148 27.9527 79.1796C27.9527 79.1796 29.0183 78.7265 30.4035 78.2C41.5929 74.3071 46.887 73.5477 53.6884 70.0587C66.4952 63.5455 79.1551 49.295 81.7903 34.4687C76.9129 48.7317 62.1322 60.987 48.6639 65.9697C39.436 69.3735 22.7681 72.6789 22.7681 72.6789L22.0942 72.3235C10.7461 66.8025 10.4022 42.231 31.0282 34.2976C40.0606 30.8203 48.7007 32.7304 58.4563 30.4039C68.8733 27.9313 80.9202 20.1197 85.8219 9.93394C91.3123 26.2297 97.9189 51.7434 86.0799 67.5126Z" fill="white"/>
</g>
<defs>
<clipPath id="clip0_194_118">
<rect width="94.0653" height="94" fill="white" transform="translate(0.696533)"/>
</clipPath>
</defs>
</svg>
