<svg width="90" height="90" viewBox="0 0 90 90" fill="none" xmlns="http://www.w3.org/2000/svg">
<path d="M15 75V67.5H25.3125L23.8125 66.1875C20.75 63.125 18.5163 59.7975 17.1113 56.205C15.7063 52.6125 15.0025 48.94 15 45.1875C15 38.25 17.0788 32.0787 21.2363 26.6737C25.3938 21.2687 30.815 17.69 37.5 15.9375V23.8125C33 25.4375 29.375 28.2037 26.625 32.1112C23.875 36.0187 22.5 40.3775 22.5 45.1875C22.5 48 23.0313 50.735 24.0938 53.3925C25.1563 56.05 26.8125 58.5025 29.0625 60.75L30 61.6875V52.5H37.5V75H15ZM52.5 74.0625V66.1875C57 64.5625 60.625 61.7975 63.375 57.8925C66.125 53.9875 67.5 49.6275 67.5 44.8125C67.5 42 66.9688 39.2662 65.9063 36.6112C64.8438 33.9562 63.1875 31.5025 60.9375 29.25L60 28.3125V37.5H52.5V15H75V22.5H64.6875L66.1875 23.8125C69.25 26.875 71.485 30.2037 72.8925 33.7987C74.3 37.3937 75.0025 41.065 75 44.8125C75 51.75 72.9225 57.9225 68.7675 63.33C64.6125 68.7375 59.19 72.315 52.5 74.0625Z" fill="white"/>
</svg>
